<?xml version="1.0" encoding="utf-8"?>
<!-- Generator: Adobe Illustrator 27.5.0, SVG Export Plug-In . SVG Version: 6.00 Build 0)  -->
<svg version="1.1" xmlns="http://www.w3.org/2000/svg" xmlns:xlink="http://www.w3.org/1999/xlink" x="0px" y="0px"
	 viewBox="0 0 2500 2500" style="enable-background:new 0 0 2500 2500;" xml:space="preserve">
<g id="Background">
	<rect style="fill:#FFFFFF;" width="2500" height="2500"/>
</g>
<g id="Illustration">
	<g id="Homeopathy_1_">
		<circle style="fill:#F2E6DC;" cx="1250.288" cy="1250" r="915"/>
		<g>
			<g>
				<g>
					<polygon style="fill:#E2A18D;" points="894.882,2018.368 744.385,2018.368 712.8,1619.671 900.146,1619.671 					"/>
					<g>
						<path style="fill:#D3BBA3;" d="M1028.815,2070.193H724.92l13.832-120.037h156.179
							C961.234,1950.156,1028.815,2003.898,1028.815,2070.193z"/>
						<path style="fill:#363E44;" d="M879.181,1976.273c-0.564,0-1.128-0.215-1.559-0.646c-0.861-0.861-0.861-2.256,0-3.118
							l23.153-23.151c0.861-0.861,2.257-0.861,3.118,0c0.861,0.861,0.861,2.257,0,3.118l-23.153,23.151
							C880.309,1976.058,879.745,1976.273,879.181,1976.273z"/>
						<path style="fill:#363E44;" d="M908.27,1981.402c-0.564,0-1.128-0.215-1.559-0.646c-0.861-0.861-0.861-2.257,0-3.118
							l23.153-23.151c0.861-0.861,2.256-0.861,3.118,0c0.861,0.861,0.861,2.256,0,3.118l-23.153,23.151
							C909.398,1981.186,908.834,1981.402,908.27,1981.402z"/>
					</g>
				</g>
				<g>
					<polygon style="fill:#E2A18D;" points="1270.611,1968.485 1125.095,1994.118 1038.602,1653.508 1223.259,1621.889 					"/>
					<g>
						<path style="fill:#E6D0BE;" d="M1387.17,2070.193h-290.063l16.598-120.037h153.413c66.303,0,136.65,53.743,136.65,120.037
							H1387.17z"/>
						<path style="fill:#363E44;" d="M1254.135,1976.273c-0.564,0-1.128-0.215-1.559-0.646c-0.861-0.861-0.861-2.256,0-3.118
							l23.153-23.151c0.861-0.861,2.256-0.861,3.118,0c0.861,0.861,0.861,2.257,0,3.118l-23.153,23.151
							C1255.264,1976.058,1254.7,1976.273,1254.135,1976.273z"/>
						<path style="fill:#363E44;" d="M1280.456,1978.635c-0.564,0-1.128-0.215-1.559-0.646c-0.861-0.861-0.861-2.256,0-3.118
							l23.153-23.149c0.861-0.861,2.256-0.861,3.118,0c0.861,0.861,0.861,2.256,0,3.118l-23.153,23.148
							C1281.584,1978.42,1281.02,1978.635,1280.456,1978.635z"/>
					</g>
				</g>
				<path style="fill:#EFBC73;" d="M722.61,966.621c-38.825,103.501-65.842,145.748-68.875,261.536
					c-1.31,49.999,9.217,187.969,24.365,332.907c2.525,24.163,0.863,163.139-23.466,346.459c64.319,0,206.796-6.778,271.115-6.778
					c-14.299-100.688-21.476-351.047-21.476-351.047c-1.722-87.015-2.809-170.816-0.347-236.645
					c19.677,62.025,47.088,147.396,75.842,235.145c0,0,18.279,214.63,18.279,338.992c68.607,0,213.805-9.037,282.412-9.037
					c-54.091-194.266-33.678-296.133-67.486-399.545c-19.734-60.364-144.621-407.28-199.864-514.717
					C898.878,965.884,825.329,965.946,722.61,966.621z"/>
				<path style="fill:#FFFFFF;" d="M711.116,915.693c-111.105,171.143-75.204,505.546-63.26,813.347l273.375,4.519l-13.556-779.457
					L711.116,915.693z"/>
				<polygon style="fill:#FFFFFF;" points="934.786,981.212 979.972,1731.299 1262.384,1724.521 1237.532,1485.035 
					1045.115,993.638 				"/>
			</g>
			<g>
				<g>
					<path style="fill:#E2A18D;" d="M1232.969,728.23c0,0,28.433-19.197,35.637-23.804c2.408-1.54,6.647-4.278,12.915-6.21
						c23.224-7.16,37.087,8.211,64.942,11.825c31.607,4.101,51.724-11.484,56.125-4.636c3.061,4.763-2.872,12.778-19.943,23.389
						c-0.001,0.001,0,0.004,0.001,0.003c13.897-6.57,33.133-14.659,36.743-6.968c3.693,9.103-17.791,21.259-31.147,27.978
						c16.166-8.133,27.197-7.62,28.141-2.831c1.486,7.539-9.581,16.765-31.364,26.684c16.955-2.647,21.463-0.761,21.265,3.676
						c-0.361,8.101-18.423,15.919-35.45,20.382c-19.169,5.025-35.779,2.273-46.211,0.287c-0.003,0-0.006,0-0.008,0.002
						c-21.664,17.681-53.191,43.884-53.191,43.884L1232.969,728.23z"/>
					<path style="fill:#E2A18D;" d="M1320.141,712.686c25.195-18.962,30.264-31.142,27.131-35.039
						c-5.269-6.554-33.407,0.83-73.721,23.904C1286.252,705.817,1307.438,708.42,1320.141,712.686z"/>
					<g>
						<path style="fill:#363E44;" d="M1343.235,760.922c-0.482,0-0.967-0.157-1.374-0.482c-3.563-2.844-13.298-9.383-26.546-8.518
							c-9.368,0.596-16.381,4.528-20.614,7.721c-0.975,0.734-2.353,0.536-3.09-0.433c-0.732-0.973-0.538-2.356,0.433-3.09
							c4.718-3.555,12.533-7.932,22.991-8.6c14.788-0.937,25.614,6.309,29.578,9.474c0.952,0.758,1.107,2.147,0.347,3.098
							C1344.525,760.638,1343.883,760.922,1343.235,760.922z"/>
						<path style="fill:#363E44;" d="M1328.178,709.167c-0.222,0-0.45-0.034-0.674-0.105c-3.652-1.171-7.06-2.431-10.354-3.647
							c-6.808-2.515-13.238-4.89-19.818-5.648c-1.21-0.138-2.078-1.232-1.938-2.442c0.14-1.21,1.242-2.082,2.442-1.938
							c7.108,0.818,13.778,3.281,20.84,5.891c3.251,1.201,6.615,2.442,10.176,3.585c1.158,0.372,1.798,1.613,1.425,2.773
							C1329.978,708.571,1329.11,709.167,1328.178,709.167z"/>
						<path style="fill:#363E44;" d="M1359.683,734.622c-1.914,0-3.828-0.084-5.732-0.254c-1.212-0.108-2.108-1.18-2-2.392
							c0.108-1.21,1.146-2.112,2.392-2c3.691,0.325,7.418,0.312,11.095-0.039c5.333-0.515,10.591-1.744,15.625-3.658
							c1.139-0.435,2.414,0.138,2.844,1.277c0.433,1.139-0.14,2.411-1.277,2.844c-5.402,2.054-11.046,3.374-16.771,3.925
							C1363.812,734.523,1361.748,734.622,1359.683,734.622z"/>
						<path style="fill:#363E44;" d="M1367.344,754.504c-1.916,0-3.833-0.084-5.74-0.254c-1.212-0.108-2.108-1.178-2-2.392
							c0.108-1.21,1.18-2.119,2.392-2c3.688,0.325,7.424,0.314,11.095-0.037c5.331-0.515,10.591-1.746,15.627-3.66
							c1.143-0.437,2.414,0.138,2.844,1.277c0.433,1.139-0.14,2.411-1.277,2.844c-5.407,2.054-11.048,3.376-16.773,3.927
							C1371.469,754.407,1369.406,754.504,1367.344,754.504z"/>
						<path style="fill:#363E44;" d="M1362.385,779.943c-1.918,0-3.835-0.086-5.74-0.256c-1.214-0.11-2.108-1.18-2-2.392
							c0.11-1.212,1.184-2.104,2.392-2c3.686,0.329,7.418,0.316,11.095-0.037c5.331-0.515,10.589-1.744,15.628-3.658
							c1.143-0.435,2.414,0.138,2.844,1.277c0.433,1.139-0.14,2.411-1.277,2.844c-5.407,2.054-11.05,3.374-16.773,3.925
							C1366.508,779.844,1364.448,779.943,1362.385,779.943z"/>
					</g>
				</g>
				<path style="fill:#FFFFFF;" d="M1233.014,709.344L1146.031,811.2c0,0-25.982-155.327-193.735-171.614
					c-1.499-0.146-2.948-0.585-4.42-0.872c-8.694,12.193-26.377,20.548-46.793,20.548c-23.425,0-42.739-7.79-49.513-22.969
					c-2.571,0.071-5.136-3.068-6.401-3.012c-192.04,8.284-374.812,165.106-357.654,282.185
					c10.183,69.487,227.327,105.322,227.327,105.322l20.021-45.927l315.661,32.596l-0.513-150.506
					c0,0,39.109,117.817,122.755,114.471c75.31-3.012,109.952-125.767,109.952-125.767L1233.014,709.344z"/>
				<path style="fill:#363E44;" d="M1160.151,851.813c-0.949,0-1.826-0.616-2.112-1.572c-3.889-12.966-7.015-20.27-9.528-26.139
					c-1.811-4.233-3.376-7.891-4.606-12.312c-0.325-1.173,0.362-2.388,1.535-2.715c1.171-0.319,2.388,0.362,2.715,1.535
					c1.148,4.136,2.588,7.499,4.41,11.756c2.556,5.973,5.736,13.403,9.698,26.609c0.349,1.165-0.312,2.394-1.479,2.745
					C1160.573,851.783,1160.36,851.813,1160.151,851.813z"/>
				<path style="fill:#363E44;" d="M779.565,871.391c-0.131,0-0.263-0.011-0.398-0.037c-26.63-4.851-175.778-32.969-193.111-36.541
					c-1.193-0.245-1.959-1.412-1.714-2.605c0.246-1.191,1.4-1.951,2.605-1.714c17.318,3.568,166.391,31.673,193.012,36.524
					c1.197,0.218,1.992,1.365,1.772,2.564C781.538,870.646,780.61,871.391,779.565,871.391z"/>
				<path style="fill:#9E9569;" d="M947.966,637.423c-11.289,11.261-26.766,19.581-45.381,19.581
					c-22.906,0-40.412-8.093-51.016-24.099c-4.113,0.831-6.401,0.377-13.932,0.377l72.297,360.358l25.982,3.389l32.76-354.333
					C962.302,640.914,953.857,638.877,947.966,637.423z"/>
				<path style="fill:#363E44;" d="M872.659,845.599c-0.73,0-1.443-0.362-1.862-1.023l-58.165-91.463
					c-0.655-1.027-0.351-2.39,0.678-3.042c1.025-0.652,2.388-0.349,3.042,0.676l58.165,91.466c0.654,1.027,0.351,2.39-0.678,3.042
					C873.473,845.487,873.063,845.599,872.659,845.599z"/>
			</g>
			<g>
				<path style="fill:#E2A18D;" d="M885.588,691.655h-15.726c-22.812-5.281-32.225-42.459-32.225-58.375l3.408-92.326
					c0-15.915,12.902-28.817,28.818-28.817h15.726c15.915,0,28.817,12.902,28.817,28.817v121.883
					C914.405,678.753,901.503,691.655,885.588,691.655z"/>
				<path style="fill:#8B865C;" d="M984.002,520.862c-0.187,0-0.377-0.024-0.566-0.073l-55.883-14.788
					c-1.178-0.312-1.88-1.518-1.568-2.696c0.312-1.178,1.518-1.873,2.696-1.568l55.883,14.788c1.178,0.312,1.88,1.518,1.568,2.696
					C985.869,520.209,984.977,520.862,984.002,520.862z"/>
				<path style="fill:#E2A18D;" d="M876.623,431.062c3.228-0.767,34.247-7.653,56.099,11.197
					c16.26,14.025,20.769,34.28,23.196,69.396c2.858,41.353-1.212,66.472-11.893,76.182c-16.876,15.342-76.655-5.549-102.581-38.431
					c-18.714-23.735-21.565-57.23-9.062-84.979C844.85,436.754,874.563,431.552,876.623,431.062z"/>
				<path style="fill:#8B865C;" d="M966.538,546.964c-0.248,0-0.495-0.006-0.743-0.022c-4.164-0.243-7.964-2.511-10.992-6.558
					c-0.73-0.973-0.53-2.356,0.446-3.085c0.975-0.734,2.358-0.53,3.085,0.446c1.55,2.073,4.149,4.588,7.719,4.797
					c3.563,0.194,7.226-2.022,10.186-6.296c3.187-4.597,5.161-10.891,5.559-17.718c0.398-6.828-0.829-13.306-3.458-18.246
					c-2.442-4.586-5.775-7.228-9.383-7.439c-3.542-0.183-7.226,2.024-10.187,6.296c-3.187,4.597-5.161,10.891-5.562,17.718
					c-0.071,1.214-1.077,2.114-2.33,2.071c-1.214-0.071-2.142-1.113-2.071-2.33c0.446-7.624,2.698-14.717,6.339-19.972
					c3.869-5.583,8.871-8.52,14.069-8.184c5.202,0.304,9.825,3.772,13.018,9.769c3.004,5.643,4.412,12.951,3.966,20.575
					c-0.444,7.624-2.696,14.717-6.337,19.973C976.18,544.075,971.473,546.964,966.538,546.964z"/>
				<path style="fill:#363E44;" d="M912.845,596.482c-0.164,0-0.332-0.017-0.497-0.056c-25.114-5.794-57.017-25.848-72.634-45.655
					c-0.754-0.956-0.59-2.343,0.366-3.096c0.958-0.751,2.343-0.588,3.096,0.366c15.078,19.124,45.896,38.49,70.162,44.088
					c1.186,0.273,1.927,1.458,1.654,2.644C914.757,595.793,913.848,596.482,912.845,596.482z"/>
				<g>
					<path style="fill:#FFFFFF;" d="M884.411,505.454c0,0,10.719-4.892,23.202-4.075c2.656,0.174-3.743,21.096-6.185,19.728
						C890.689,515.091,884.411,505.454,884.411,505.454z"/>
					<path style="fill:#373E44;" d="M915.732,502.777c-2.724-0.791-5.45-1.207-8.101-1.381c-5.522,5.202-7.659,12.713-6.212,19.702
						c2.444,1.371,5.12,2.556,8.006,3.395c15.558,4.518,31.323-2.677,31.323-2.677S931.29,507.296,915.732,502.777z"/>
				</g>
				<path style="fill:#363E44;" d="M930.944,559.078c-2.166,0-4.302-0.674-6.052-2.024c-3.555-2.739-4.039-7.211-3.766-9.424
					c0.151-1.208,1.245-2.076,2.459-1.916c1.208,0.149,2.067,1.249,1.916,2.459c-0.015,0.138-0.375,3.497,2.082,5.389
					c1.981,1.524,4.888,1.479,7.071-0.119c0.982-0.717,2.36-0.506,3.081,0.48c0.717,0.982,0.504,2.362-0.48,3.081
					C935.367,558.385,933.141,559.078,930.944,559.078z"/>
				<path style="fill:#363E44;" d="M952.627,541.849c-0.695,0-1.378-0.327-1.807-0.939c-0.7-0.997-0.459-2.371,0.538-3.07
					c4.046-2.842,4.207-4.433,4.158-4.853c-0.047-0.431-0.398-0.816-1.316-1.731c-0.865-0.861-1.942-1.934-2.984-3.587
					c-1.539-2.442-2.444-5.273-2.687-8.417c-0.095-1.214,0.814-2.274,2.028-2.368c1.257-0.093,2.274,0.816,2.368,2.028
					c0.187,2.422,0.868,4.578,2.02,6.406c0.777,1.232,1.585,2.037,2.366,2.816c1.161,1.156,2.36,2.351,2.588,4.358
					c0.334,2.954-1.632,5.884-6.009,8.957C953.505,541.719,953.064,541.849,952.627,541.849z"/>
				<path style="fill:#84524D;" d="M944.955,424.634c-24.411-14.345-47.977-4.129-49.743-3.247
					c-21.119-12.536-45.04-10.783-57.298-3.322c-23.15,14.091-32.013,32.783-46.091,56.671
					c-10.024,17.009-32.704,36.27-42.94,52.757c-11.674,18.805-19.061,59.454-27.545,80.289
					c-5.848,14.361-25.555,40.674-41.502,40.695c4.165,11.868,14.342,25.159,26.419,36.68c4.843-0.691,16.831-5.703,22.289-11.749
					c11.801-13.074,17.85-40.124,19.035-43.635c0.719,3.467-4.434,40.974-10.103,52.368c-4.052,8.145-10.19,13.196-15.43,16.262
					c8.098,5.929,16.271,10.648,23.52,13.364c26.56,9.95,53.033,19.813,85.909,7.402c-38.139-33.499,2.573-76.723,9.375-110.063
					c5.461-26.767,5.724-76.917,13.099-95.594c4.399-11.14,20.871-3.671,27.279-44.817c1.687,6.043,3.374,12.088,5.061,18.131
					c8.995,1.378,21.668,2.228,36.399-0.345c1.263-0.221,2.495-0.473,3.721-0.73c1.357-3.386,2.6-8.045,2.351-13.642
					c-0.455-10.244-5.606-17.122-7.409-19.328c2.552,0.947,10.257,4.181,15.365,12.526c3.552,5.804,4.391,11.701,4.304,16.313
					c15.277-5.467,26.382-13.163,32.801-18.247C973.809,461.918,970.487,439.638,944.955,424.634z"/>
				<path style="fill:#8B865C;" d="M907.214,519.055c-0.301,0-0.607-0.063-0.902-0.194l-47.109-21.168
					c-1.111-0.5-1.606-1.804-1.107-2.915c0.502-1.109,1.798-1.602,2.915-1.107l47.109,21.167c1.111,0.5,1.606,1.804,1.107,2.915
					C908.859,518.571,908.056,519.055,907.214,519.055z"/>
				<g>
					
						<ellipse transform="matrix(0.8365 -0.548 0.548 0.8365 -145.1511 557.7232)" style="fill:#E2A18D;" cx="861.872" cy="522.057" rx="22.056" ry="26.095"/>
					<path style="fill:#363E44;" d="M854.148,532.513c-0.59,0-1.178-0.235-1.613-0.7c-0.689-0.738-1.322-1.55-1.886-2.409
						c-2.226-3.398-3.197-7.346-2.734-11.119c0.48-3.91,2.427-7.166,5.484-9.166c1.559-1.018,3.301-1.645,5.176-1.862
						c1.227-0.155,2.306,0.73,2.444,1.936c0.14,1.21-0.728,2.304-1.936,2.444c-1.191,0.138-2.291,0.532-3.268,1.173
						c-1.953,1.277-3.204,3.413-3.523,6.014c-0.336,2.737,0.392,5.637,2.048,8.165c0.424,0.65,0.902,1.262,1.421,1.815
						c0.831,0.891,0.781,2.287-0.108,3.118C855.227,532.317,854.686,532.513,854.148,532.513z"/>
				</g>
				<path style="fill:#8B865C;" d="M922.745,547.087c-0.248,0-0.495-0.007-0.743-0.022c-10.482-0.612-17.944-13.939-16.986-30.344
					c0.96-16.4,9.926-28.777,20.405-28.159c10.482,0.614,17.944,13.944,16.986,30.346c-0.444,7.622-2.696,14.717-6.337,19.97
					C932.387,544.198,927.68,547.087,922.745,547.087z M924.702,492.951c-7.57,0-14.512,10.826-15.285,24.029
					c-0.786,13.47,5.094,25.233,12.844,25.685c3.559,0.196,7.226-2.022,10.187-6.296c3.187-4.599,5.161-10.891,5.559-17.718
					l2.201,0.129l-2.201-0.129c0.786-13.47-5.096-25.233-12.844-25.687C925.008,492.955,924.855,492.951,924.702,492.951z"/>
				<path style="fill:#8B865C;" d="M940.252,519.983c-1.212,0-2.196-0.978-2.205-2.19c-0.009-1.219,0.973-2.211,2.19-2.22
					l10.83-0.071c0.006,0,0.011,0,0.015,0c1.212,0,2.196,0.978,2.205,2.19c0.009,1.219-0.973,2.211-2.19,2.22l-10.83,0.071
					C940.261,519.983,940.257,519.983,940.252,519.983z"/>
			</g>
			<g>
				<g>
					<path style="fill:#363E44;" d="M879.144,938.074c-0.392,0-0.79-0.106-1.15-0.325c-1.038-0.635-1.365-1.994-0.728-3.032
						l21.615-35.273c0.635-1.038,1.99-1.363,3.032-0.728c1.038,0.635,1.365,1.994,0.728,3.032l-21.615,35.273
						C880.61,937.7,879.887,938.074,879.144,938.074z"/>
					<path style="fill:#363E44;" d="M866.927,930.528c-0.392,0-0.79-0.105-1.15-0.325c-1.038-0.635-1.365-1.994-0.728-3.032
						l21.615-35.271c0.635-1.036,1.99-1.363,3.032-0.728c1.038,0.635,1.365,1.994,0.728,3.032l-21.615,35.271
						C868.393,930.153,867.67,930.528,866.927,930.528z"/>
					<path style="fill:#363E44;" d="M829.912,1022.008c-4.16,0-8.365-1.128-12.142-3.499c-10.706-6.716-13.95-20.888-7.235-31.591
						l64.954-103.51c3.275-5.221,10.186-6.804,15.414-3.531l19.882,12.475c2.53,1.587,4.291,4.065,4.959,6.976
						c0.665,2.913,0.159,5.91-1.43,8.438l-64.952,103.51C845.017,1018.206,837.545,1022.008,829.912,1022.008z M820.113,1014.776
						c8.643,5.417,20.091,2.799,25.517-5.841l64.952-103.51c0.96-1.533,1.268-3.348,0.864-5.112
						c-0.403-1.763-1.469-3.264-3.002-4.227l-19.882-12.473c-3.167-1.979-7.355-1.018-9.338,2.138l-64.954,103.51
						C808.848,997.906,811.469,1009.352,820.113,1014.776z"/>
					<path style="fill:#363E44;" d="M910.276,897.35l-23.65-14.837l76.271-121.545l23.65,14.837L910.276,897.35z M892.707,881.122
						l16.179,10.148l71.581-114.073l-16.179-10.148L892.707,881.122z"/>
				</g>
				<g>
					<ellipse style="fill:#E6D0BE;" cx="1005.462" cy="717.68" rx="133.146" ry="133.13"/>
					<path style="fill:#363E44;" d="M1005.303,853.019c-16.4,0-33.057-2.999-49.225-9.334
						c-32.317-12.663-58.26-36.918-73.048-68.302c-16.037-34.035-17.311-72.064-3.587-107.08
						c27.227-69.478,105.909-103.865,175.404-76.628c33.66,13.19,60.17,38.696,74.645,71.822
						c14.473,33.124,15.18,69.904,1.99,103.562C1110.588,820.371,1059.388,853.019,1005.303,853.019z M887.018,773.505
						c14.308,30.359,39.405,53.824,70.67,66.076c67.221,26.335,143.346-6.92,169.689-74.133
						c12.76-32.56,12.075-68.141-1.927-100.186c-14.004-32.047-39.648-56.723-72.214-69.484
						c-67.219-26.335-143.346,6.916-169.689,74.135C870.271,703.786,871.505,740.577,887.018,773.505z"/>
					<path style="fill:#FFFFFF;" d="M1005.447,820.022c-12.688,0-25.159-2.373-37.18-7.084
						c-21.781-8.533-39.478-23.725-51.174-43.933c-0.612-1.053-0.25-2.403,0.803-3.012c1.057-0.616,2.401-0.252,3.012,0.803
						c11.192,19.333,28.124,33.871,48.969,42.038c14.129,5.536,28.906,7.693,43.926,6.423c1.212-0.129,2.282,0.794,2.384,2.009
						c0.103,1.214-0.797,2.28-2.009,2.383C1011.259,819.899,1008.346,820.022,1005.447,820.022z"/>
					<path style="fill:#FFFFFF;" d="M1105.108,730.608c-0.078,0-0.157-0.004-0.239-0.013c-1.21-0.131-2.086-1.219-1.955-2.429
						c1.942-18.009-1.184-36.22-9.045-52.661c-0.525-1.1-0.06-2.416,1.038-2.941c1.1-0.528,2.416-0.06,2.941,1.038
						c8.212,17.182,11.481,36.214,9.45,55.039C1107.175,729.771,1106.219,730.608,1105.108,730.608z"/>
					<path style="fill:#FFFFFF;" d="M1086.36,660.849c-0.68,0-1.35-0.314-1.783-0.904c-10.949-14.995-25.917-26.518-43.289-33.324
						c-13.438-5.264-27.491-7.484-41.797-6.578c-1.165,0.049-2.263-0.846-2.338-2.063c-0.078-1.214,0.846-2.261,2.063-2.338
						c14.934-0.935,29.638,1.372,43.683,6.875c18.153,7.112,33.796,19.154,45.24,34.827c0.719,0.984,0.504,2.364-0.48,3.081
						C1087.267,660.711,1086.81,660.849,1086.36,660.849z"/>
					<path style="fill:#FFFFFF;" d="M913.355,758.754c-0.859,0-1.677-0.506-2.033-1.348c-5.695-13.522-8.458-28.387-7.986-42.987
						c0.037-1.193,1.016-2.134,2.201-2.134c0.026,0,0.05,0,0.073,0.002c1.217,0.039,2.173,1.057,2.132,2.274
						c-0.45,13.97,2.194,28.193,7.646,41.132c0.471,1.124-0.054,2.416-1.176,2.89C913.932,758.698,913.642,758.754,913.355,758.754z
						"/>
				</g>
				<g>
					<path style="fill:#8B865C;" d="M973.556,698.466c28.683,20.871,30.601,47.306,19.604,58.727
						c-10.997,11.421-38.092,10.971-59.426-17.369c-24.748-32.875-33.109-71.73-33.109-71.73S940.39,674.333,973.556,698.466z"/>
					<path style="fill:#8B865C;" d="M1067.445,741.831c-9.983,27.157-30.297,34.553-41.709,28.47
						c-11.412-6.083-17.098-27.443,0.384-50.498c20.279-26.745,48.902-41.964,48.902-41.964S1078.988,710.43,1067.445,741.831z"/>
					<path style="fill:#8B865C;" d="M1029.62,670.541c6.038,22.599-6.19,36.861-18.303,38.087
						c-12.113,1.226-27.536-10.313-25.562-33.648c2.291-27.07,17.063-50.345,17.063-50.345S1022.638,644.41,1029.62,670.541z"/>
					<path style="fill:#9E9569;" d="M1015.487,806.814c-0.021,0-0.043,0-0.065,0c-1.219-0.037-2.177-1.051-2.142-2.267
						c0.431-14.958,4.939-30.917,16.08-56.914c5.865-13.688,26.585-44.381,34.683-54.266c0.769-0.941,2.162-1.081,3.103-0.308
						c0.941,0.771,1.081,2.16,0.308,3.103c-7.964,9.722-28.31,39.835-34.041,53.206c-10.903,25.444-15.311,40.951-15.722,55.304
						C1017.656,805.869,1016.674,806.814,1015.487,806.814z"/>
					<path style="fill:#9E9569;" d="M1014.96,806.616c-0.915,0-1.768-0.573-2.084-1.483c-9.84-28.465-24.563-53.826-43.758-75.379
						c-13.489-15.147-29.218-28.428-46.747-39.476c-1.029-0.648-1.339-2.009-0.689-3.04c0.648-1.029,2.009-1.335,3.04-0.689
						c17.88,11.265,33.925,24.815,47.69,40.272c19.583,21.99,34.599,47.854,44.633,76.869c0.398,1.152-0.213,2.407-1.363,2.806
						C1015.442,806.578,1015.199,806.616,1014.96,806.616z"/>
					<path style="fill:#9E9569;" d="M1008.361,753.447c-0.03,0-0.058,0-0.086-0.002c-1.216-0.045-2.166-1.07-2.119-2.287
						c1.667-43.504,0.594-79.617-3.275-110.4c-0.153-1.208,0.704-2.31,1.912-2.463c1.257-0.138,2.31,0.704,2.463,1.912
						c3.899,31.025,4.982,67.374,3.305,111.12C1010.516,752.514,1009.538,753.447,1008.361,753.447z"/>
				</g>
			</g>
			<g>
				<path style="fill:#E2A18D;" d="M779.564,869.186c0,0,146.198,33.681,143.955,51.898c-1.072,8.705-25.045,4.21-33.105,2.455
					c5.81,4.627,18.084,13.252,14.392,22.365c-4.337,10.706-24.056,3.561-24.685,3.656c6.378,4.1,16.045,12.568,13.543,19.508
					c-3.255,9.029-15.376,8.898-23.817,6.418c0.547,1.412,10.114,10.859,7.89,16.303c-2.462,6.032-13.123,7.134-23.935,5.797
					c-20.499-4.236-118.626-22.465-118.626-22.465L779.564,869.186z"/>
				<g>
					<path style="fill:#363E44;" d="M890.874,924.949c-0.396,0-0.797-0.105-1.158-0.329c-4.104-2.539-8.423-4.814-12.835-6.763
						c-7.921-3.499-16.301-6.02-24.907-7.495c-1.199-0.205-2.007-1.344-1.8-2.545c0.205-1.199,1.326-2.005,2.545-1.8
						c8.964,1.533,17.692,4.16,25.945,7.805c4.595,2.03,9.095,4.403,13.373,7.047c1.036,0.642,1.354,2,0.715,3.036
						C892.334,924.578,891.613,924.949,890.874,924.949z"/>
					<path style="fill:#363E44;" d="M880.701,951.267c-0.319,0-0.642-0.069-0.949-0.215c-0.913-0.437-1.85-0.868-2.81-1.29
						c-7.921-3.499-16.301-6.02-24.907-7.495c-1.199-0.205-2.007-1.344-1.8-2.545c0.205-1.199,1.328-2.007,2.545-1.8
						c8.964,1.533,17.692,4.16,25.945,7.805c0.999,0.444,1.979,0.891,2.93,1.346c1.098,0.525,1.563,1.841,1.038,2.941
						C882.313,950.804,881.523,951.267,880.701,951.267z"/>
					<path style="fill:#363E44;" d="M869.341,977.326c-0.237,0-0.478-0.039-0.715-0.118c-5.353-1.837-10.917-3.256-16.534-4.218
						c-1.199-0.205-2.007-1.346-1.8-2.545c0.205-1.199,1.333-2.005,2.545-1.8c5.85,1.001,11.644,2.48,17.219,4.39
						c1.152,0.396,1.766,1.649,1.372,2.801C871.113,976.751,870.256,977.326,869.341,977.326z"/>
				</g>
			</g>
		</g>
		<g>
			<path style="fill:#FFFFFF;" d="M1472.507,664.326l-9.033-22.332c-6.838,0.678-13.731,0.62-20.552-0.177l-9.407,22.184
				l-49.68-21.068l9.409-22.184c-5.318-4.349-10.154-9.267-14.413-14.652l-22.332,9.032l-20.231-50.024l22.333-9.035
				c-0.68-6.834-0.622-13.733,0.177-20.552l-22.184-9.407l21.068-49.68l22.184,9.409c4.347-5.314,9.265-10.15,14.652-14.413
				l-9.032-22.332l50.024-20.231l9.035,22.332c6.836-0.678,13.733-0.622,20.552,0.177l9.407-22.184l49.679,21.071l-9.409,22.182
				c5.318,4.349,10.154,9.267,14.413,14.652l22.332-9.032l20.231,50.026l-22.332,9.032c0.68,6.834,0.622,13.733-0.177,20.552
				l22.184,9.407l-21.071,49.68l-22.182-9.409c-4.349,5.318-9.267,10.154-14.652,14.413l9.032,22.332L1472.507,664.326z
				 M1466.306,637.235l8.634,21.351l41.853-16.924l-8.636-21.353l1.337-1.018c6.061-4.621,11.53-9.999,16.254-15.987l1.042-1.322
				l21.206,8.994l17.626-41.558l-21.208-8.996l0.226-1.667c1.021-7.553,1.087-15.223,0.196-22.795l-0.196-1.671l21.351-8.634
				l-16.924-41.853l-21.353,8.636l-1.018-1.337c-4.621-6.061-9.999-11.53-15.987-16.254l-1.322-1.042l8.994-21.206l-41.558-17.626
				l-8.994,21.208l-1.669-0.226c-7.553-1.023-15.225-1.089-22.795-0.196l-1.671,0.196l-8.636-21.35l-41.851,16.924l8.636,21.35
				l-1.337,1.021c-6.065,4.625-11.534,10.006-16.254,15.987l-1.042,1.322l-21.208-8.994l-17.624,41.558l21.206,8.994l-0.224,1.669
				c-1.021,7.553-1.087,15.223-0.196,22.795l0.196,1.671l-21.351,8.636l16.924,41.851l21.353-8.636l1.018,1.337
				c4.621,6.061,9.999,11.53,15.987,16.254l1.322,1.042l-8.994,21.208l41.558,17.624l8.996-21.206l1.667,0.224
				c7.551,1.023,15.223,1.087,22.795,0.196L1466.306,637.235z M1453.993,600.403c-7.123,0-14.237-1.434-20.989-4.298
				c-13.224-5.607-23.473-16.03-28.858-29.347c-5.387-13.317-5.265-27.935,0.344-41.159c5.607-13.225,16.03-23.474,29.347-28.859
				c13.317-5.385,27.935-5.262,41.16,0.344c13.224,5.609,23.474,16.03,28.859,29.347c5.387,13.317,5.264,27.935-0.344,41.159
				c-5.609,13.225-16.032,23.474-29.349,28.859C1467.646,599.086,1460.816,600.403,1453.993,600.403z M1454.005,497.199
				c-6.266,0-12.531,1.21-18.515,3.628c-12.225,4.944-21.794,14.353-26.942,26.492c-5.148,12.142-5.26,25.56-0.317,37.786
				c4.944,12.226,14.353,21.794,26.492,26.942c12.139,5.148,25.558,5.258,37.783,0.317c12.225-4.944,21.794-14.353,26.942-26.492
				c5.15-12.142,5.262-25.56,0.319-37.786c-4.944-12.226-14.353-21.792-26.492-26.94
				C1467.075,498.517,1460.542,497.199,1454.005,497.199z M1434.664,498.784h0.021H1434.664z"/>
			<path style="fill:#FFFFFF;" d="M1233.224,570.735l-2.657-17.339c-4.644-0.648-9.22-1.77-13.642-3.344l-10.383,14.135
				l-32.372-23.771l10.38-14.138c-2.825-3.746-5.264-7.775-7.278-12.015l-17.339,2.657l-6.083-39.7l17.339-2.657
				c0.65-4.647,1.772-9.22,3.346-13.642l-14.137-10.382l23.771-32.372l14.138,10.38c3.746-2.825,7.775-5.264,12.015-7.278
				l-2.657-17.339l39.7-6.083l2.657,17.339c4.649,0.65,9.222,1.772,13.642,3.346l10.382-14.137l32.373,23.771l-10.38,14.138
				c2.827,3.751,5.269,7.779,7.278,12.014l17.339-2.657l6.083,39.702l-17.339,2.655c-0.65,4.649-1.772,9.224-3.346,13.642
				l14.138,10.383l-23.771,32.372l-14.138-10.38c-3.751,2.827-7.779,5.269-12.015,7.278l2.657,17.339L1233.224,570.735z
				 M1215.349,544.747l1.572,0.603c5.092,1.953,10.417,3.258,15.826,3.88l1.673,0.192l2.495,16.289l30.984-4.748l-2.498-16.288
				l1.54-0.685c4.972-2.211,9.661-5.051,13.937-8.44l1.318-1.047l13.281,9.752l18.551-25.267l-13.281-9.75l0.603-1.572
				c1.953-5.088,3.26-10.413,3.882-15.826l0.192-1.673l16.289-2.493l-4.748-30.986l-16.289,2.498l-0.685-1.539
				c-2.211-4.972-5.051-9.661-8.44-13.937l-1.046-1.318l9.752-13.281l-25.267-18.551l-9.749,13.28l-1.572-0.603
				c-5.088-1.953-10.413-3.26-15.826-3.882l-1.673-0.192l-2.496-16.289l-30.984,4.748l2.498,16.286l-1.537,0.685
				c-4.98,2.218-9.67,5.058-13.94,8.443l-1.318,1.047l-13.281-9.752l-18.552,25.267l13.281,9.749l-0.603,1.572
				c-1.953,5.09-3.26,10.415-3.882,15.826l-0.192,1.673l-16.289,2.496l4.748,30.984l16.286-2.498l0.685,1.537
				c2.218,4.98,5.058,9.67,8.443,13.939l1.046,1.318l-9.752,13.281l25.267,18.552L1215.349,544.747z M1240.243,523.695
				c-8.1,0-16.267-2.48-23.28-7.631c-17.52-12.863-21.307-37.581-8.442-55.103c12.867-17.518,37.59-21.305,55.103-8.443
				c17.518,12.863,21.307,37.583,8.443,55.103C1264.352,518.127,1252.374,523.695,1240.243,523.695z M1212.074,463.571
				c-11.425,15.561-8.061,37.516,7.499,48.941c15.563,11.42,37.512,8.059,48.941-7.499c11.422-15.561,8.059-37.514-7.499-48.941
				C1245.45,444.649,1223.501,448.01,1212.074,463.571z"/>
		</g>
		<g>
			<g>
				<path style="fill:#776E42;" d="M1908.534,1407.931c-0.674,0-1.337-0.306-1.77-0.887c-0.728-0.978-0.525-2.36,0.45-3.085
					c65.884-49.059,143.798-127.839,140.82-224.536c-3.973-129.109-145.652-221.373-398.935-259.796
					c-1.204-0.181-2.03-1.305-1.847-2.51c0.181-1.204,1.283-2.037,2.511-1.847c255.625,38.776,398.633,132.541,402.681,264.018
					c3.034,98.597-75.87,178.521-142.594,228.207C1909.453,1407.789,1908.99,1407.931,1908.534,1407.931z"/>
				<g>
					<path style="fill:#8B865C;" d="M1766.818,1088.67c32.293-48.025,19.431-97.324-6.622-109.392
						c-26.053-12.068-72.634,9.818-87.723,65.69c-15.02,55.617-0.365,124.475-0.365,124.475S1732.287,1140.024,1766.818,1088.67z"/>
					<path style="fill:#776E42;" d="M1692.135,1127.211c-0.31,0-0.624-0.065-0.924-0.204c-1.107-0.513-1.587-1.822-1.074-2.926
						l83.284-179.794c0.51-1.107,1.824-1.589,2.926-1.074c1.107,0.512,1.587,1.822,1.074,2.926l-83.284,179.794
						C1693.764,1126.737,1692.968,1127.211,1692.135,1127.211z"/>
				</g>
				<g>
					<path style="fill:#9E9569;" d="M1655.158,848.975c38.572,59.445,100.274,68.648,126.384,45.105
						c26.11-23.543,23.843-86.522-31.832-130.361c-55.421-43.64-140.014-60.221-140.014-60.221S1613.913,785.41,1655.158,848.975z"
						/>
					<path style="fill:#776E42;" d="M1848.162,969.248c-0.603,0-1.202-0.246-1.636-0.728l-198.044-219.636
						c-0.816-0.904-0.745-2.3,0.159-3.113c0.904-0.818,2.297-0.747,3.113,0.159l198.044,219.636c0.816,0.904,0.745,2.3-0.159,3.114
						C1849.217,969.06,1848.69,969.248,1848.162,969.248z"/>
				</g>
				<g>
					<path style="fill:#9E9569;" d="M1540.467,947.857c49.743,16.502,89.625-6.698,93.823-32.358
						c4.198-25.66-26.215-60.979-78.622-60.566c-52.169,0.411-108.678,29.928-108.678,29.928S1487.276,930.211,1540.467,947.857z"/>
					<path style="fill:#776E42;" d="M1661.383,921.939c-0.118,0-0.239-0.009-0.362-0.03l-170.759-28.198
						c-1.202-0.198-2.013-1.333-1.815-2.534c0.196-1.199,1.32-2.037,2.534-1.815l170.759,28.198
						c1.202,0.198,2.013,1.333,1.815,2.534C1663.379,921.172,1662.443,921.939,1661.383,921.939z"/>
				</g>
				<g>
					<path style="fill:#9E9569;" d="M1930.599,943.377c-2.511,46.905,26.971,75.902,50.147,73.467
						c23.176-2.435,46.524-37.075,33.782-82.286c-12.684-45.005-51.557-86.885-51.557-86.885S1933.284,893.221,1930.599,943.377z"/>
					<path style="fill:#776E42;" d="M1983.875,1044.941c-1.115,0-2.071-0.842-2.19-1.974l-16.366-155.763
						c-0.127-1.21,0.752-2.295,1.962-2.422c1.182-0.131,2.295,0.749,2.422,1.961l16.366,155.763c0.127,1.21-0.752,2.295-1.962,2.422
						C1984.03,1044.937,1983.952,1044.941,1983.875,1044.941z"/>
				</g>
			</g>
			<g>
				<path style="fill:#B77250;" d="M1758.618,1605.307c0,54.539-67.934,522.627-549.13,522.627
					c-432.026,0-549.13-468.088-549.13-522.627s245.854-45.767,549.13-45.767S1758.618,1550.768,1758.618,1605.307z"/>
				<ellipse style="fill:#84524D;" cx="1209.487" cy="1605.307" rx="549.13" ry="98.752"/>
				<path style="fill:#363E44;" d="M1209.488,1706.264c-146.806,0-284.841-10.283-388.685-28.958
					c-60.745-10.925-162.651-34.806-162.651-71.999c0-37.193,101.906-61.074,162.651-71.999
					c103.844-18.674,241.88-28.958,388.685-28.958s284.842,10.283,388.683,28.958c60.745,10.925,162.651,34.806,162.651,71.999
					c0,37.193-101.906,61.074-162.651,71.999C1494.329,1695.981,1356.294,1706.264,1209.488,1706.264z M1209.488,1508.761
					c-146.552,0-284.312,10.26-387.904,28.889c-101.062,18.175-159.023,42.835-159.023,67.658
					c0,24.824,57.961,49.484,159.023,67.658c103.592,18.629,241.352,28.889,387.904,28.889s284.312-10.26,387.904-28.889
					c101.06-18.175,159.021-42.835,159.021-67.658c0-24.823-57.961-49.483-159.021-67.658
					C1493.8,1519.021,1356.04,1508.761,1209.488,1508.761z"/>
				<path style="fill:#D3BBA3;" d="M1187.477,1505.577l176.333-309.3c-14.959-32.506-16.206-71.088-0.109-106.16
					c29.271-63.779,104.704-91.752,168.481-62.48c63.778,29.271,91.753,104.704,62.479,168.482
					c-15.562,33.909-44.173,57.694-77.143,68.139l-88.656,248.716l-65.051,187.666c-46.025,2.251-95.865,2.286-145.856,2.286
					c-47.337,0-93.276-1.078-137.1-3.103l-3.265-1.498L1187.477,1505.577z"/>
				<path style="fill:#363E44;" d="M1066.297,1700.531c-0.37,0-0.745-0.093-1.089-0.289c-1.057-0.603-1.427-1.951-0.825-3.008
					l285.66-501.069c-15.335-34.104-15.216-73.024,0.362-106.968c29.733-64.784,106.628-93.289,171.405-63.565
					c64.782,29.733,93.298,106.626,63.565,171.408c-15.023,32.728-43.207,57.818-77.436,68.984l-153.455,430.5
					c-0.411,1.146-1.671,1.74-2.818,1.337c-1.148-0.409-1.744-1.671-1.337-2.818l154.189-432.556l1.044-0.329
					c33.518-10.619,61.147-35.023,75.804-66.956c13.911-30.312,15.188-64.226,3.592-95.496
					c-11.597-31.27-34.676-56.152-64.986-70.063c-62.573-28.714-136.841-1.176-165.557,61.395
					c-15.201,33.118-15.163,71.14,0.105,104.32l0.474,1.029l-0.56,0.984l-286.217,502.048
					C1067.809,1700.13,1067.064,1700.531,1066.297,1700.531z"/>
				<path style="fill:#363E44;" d="M1209.488,1706.264c-178.633,0-346.802-15.714-449.856-42.034
					c-1.18-0.302-1.893-1.501-1.591-2.681c0.302-1.182,1.507-1.893,2.681-1.591c102.718,26.234,270.482,41.896,448.767,41.896
					c155.819,0,304.818-11.978,408.796-32.861c1.193-0.248,2.356,0.534,2.597,1.727c0.239,1.195-0.534,2.358-1.727,2.597
					C1514.903,1694.256,1365.584,1706.264,1209.488,1706.264z"/>
			</g>
			<g>
				<path style="fill:#776E42;" d="M857.212,2075.21c-4.242,0-7.949-0.211-11.065-0.644
					c-141.774-19.676-246.124-207.24-272.009-327.808c-29.141-135.749-23.913-238.568-7.097-351.186
					c0.181-1.203,1.3-2.022,2.506-1.856c1.206,0.181,2.035,1.303,1.856,2.506c-16.745,112.142-21.956,214.511,7.045,349.61
					c25.625,119.351,128.618,304.98,268.305,324.367c18.987,2.629,61.356-3.294,110.568-15.481c1.178-0.289,2.377,0.426,2.67,1.611
					c0.293,1.182-0.428,2.377-1.611,2.67C916.6,2069.345,879.553,2075.21,857.212,2075.21z"/>
				<g>
					<path style="fill:#8B865C;" d="M440.408,1500.39c30.387,39.837,74.382,43.01,91.525,25.009
						c17.143-18.001,12.161-62.279-29.446-90.195c-41.417-27.789-101.946-34.933-101.946-34.933S407.914,1457.792,440.408,1500.39z"
						/>
					<path style="fill:#776E42;" d="M555.625,1549.565c-0.547,0-1.094-0.202-1.52-0.607l-124.228-118.307
						c-0.883-0.84-0.917-2.237-0.077-3.118c0.846-0.885,2.239-0.913,3.118-0.077l124.228,118.307
						c0.883,0.84,0.917,2.237,0.078,3.118C556.788,1549.337,556.207,1549.565,555.625,1549.565z"/>
				</g>
				<g>
					<path style="fill:#9E9569;" d="M643.853,1472.38c-47.327,39.038-49.158,93.017-26.333,113.153
						c22.825,20.136,76.77,11.976,108.988-40.234c32.071-51.972,37.991-126.367,37.991-126.367S694.46,1430.636,643.853,1472.38z"/>
					<path style="fill:#776E42;" d="M561.331,1652.236c-0.519,0-1.04-0.181-1.458-0.551c-0.915-0.805-1.001-2.198-0.196-3.111
						l169.386-192c0.807-0.915,2.205-0.999,3.111-0.196c0.915,0.805,1.001,2.198,0.196,3.111l-169.386,192
						C562.55,1651.984,561.941,1652.236,561.331,1652.236z"/>
				</g>
				<g>
					<path style="fill:#9E9569;" d="M582.977,1289.304c-28.43,35.362-21.672,74.731-2.125,85.896s57.395-2.824,72.91-45.463
						c15.444-42.445,8.589-97.213,8.589-97.213S613.378,1251.491,582.977,1289.304z"/>
					<path style="fill:#776E42;" d="M569.221,1398.102c-0.372,0-0.749-0.095-1.094-0.293c-1.057-0.605-1.423-1.953-0.816-3.008
						l74.518-129.996c0.605-1.057,1.955-1.423,3.008-0.816c1.057,0.605,1.423,1.953,0.816,3.008l-74.518,129.996
						C570.728,1397.704,569.985,1398.102,569.221,1398.102z"/>
				</g>
				<g>
					<path style="fill:#9E9569;" d="M433.06,1774.039c55.052,27.076,105.004,6.538,113.967-22.549
						c8.963-29.088-20.667-74.9-81.508-82.786c-60.564-7.85-130.807,17.36-130.807,17.36S374.193,1745.086,433.06,1774.039z"/>
					<path style="fill:#776E42;" d="M579.734,1763.215c-0.215,0-0.433-0.03-0.65-0.097l-195.488-60.241
						c-1.163-0.359-1.815-1.593-1.458-2.758c0.36-1.163,1.585-1.822,2.758-1.458l195.488,60.241
						c1.163,0.359,1.815,1.593,1.458,2.758C581.549,1762.608,580.677,1763.215,579.734,1763.215z"/>
				</g>
				<g>
					<path style="fill:#8B865C;" d="M665.335,1725.198c-43.201,25.379-51.638,68.674-35.828,87.856
						c15.81,19.182,60.366,19.558,93.081-18.391c32.565-37.777,46.933-97.008,46.933-97.008S711.53,1698.06,665.335,1725.198z"/>
					<path style="fill:#776E42;" d="M604.859,1836.14c-0.637,0-1.268-0.273-1.703-0.803c-0.775-0.939-0.642-2.328,0.299-3.103
						l132.38-109.108c0.939-0.775,2.33-0.64,3.103,0.299c0.775,0.939,0.642,2.327-0.299,3.103l-132.38,109.108
						C605.85,1835.974,605.352,1836.14,604.859,1836.14z"/>
				</g>
				<g>
					<path style="fill:#8B865C;" d="M778.485,1966.389c0.964,50.094,34.575,78.658,59.042,74.271
						c24.468-4.387,46.621-43.047,29.562-90.157c-16.982-46.896-61.582-88.436-61.582-88.436S777.455,1912.823,778.485,1966.389z"/>
					<path style="fill:#776E42;" d="M843.656,2074.583c-1.049,0-1.977-0.75-2.168-1.815l-30.275-168.856
						c-0.215-1.199,0.583-2.345,1.781-2.56c1.204-0.211,2.345,0.583,2.56,1.781l30.275,168.856c0.215,1.199-0.584,2.345-1.781,2.56
						C843.916,2074.573,843.785,2074.583,843.656,2074.583z"/>
				</g>
				<g>
					<path style="fill:#8B865C;" d="M590.622,1995.424c40.282,29.795,83.419,20.587,94.869-1.477s-5.67-63.202-53.405-78.422
						c-47.519-15.151-107.642-5.152-107.642-5.152S547.549,1963.564,590.622,1995.424z"/>
					<path style="fill:#776E42;" d="M714.362,2010.644c-0.342,0-0.689-0.08-1.014-0.248l-152.266-79.018
						c-1.081-0.562-1.501-1.893-0.941-2.974c0.56-1.081,1.89-1.501,2.974-0.941l152.266,79.018c1.081,0.562,1.501,1.893,0.941,2.974
						C715.929,2010.211,715.158,2010.644,714.362,2010.644z"/>
				</g>
			</g>
			<g>
				<path style="fill:#E6D0BE;" d="M2109.458,1402.331l-48.459-44.44l-334.423-0.019l-52.907,44.417
					c0.236,0.047,0.484-0.156,0.722-0.156h-0.778v674.675h436.554v-674.675h-1.381
					C2109.008,1402.133,2109.237,1402.378,2109.458,1402.331z"/>
				
					<ellipse transform="matrix(0.7071 -0.7071 0.7071 0.7071 -607.7401 1821.5337)" style="fill:#F7F1EB;" cx="1894.916" cy="1644.374" rx="162.294" ry="162.294"/>
				<path style="fill:#D3BBA3;" d="M1934.811,1590.395c37.794,22.611,30.049,65.368,7.592,88.692s-66.063,33.698-88.915-4.231
					c-26.51-43.999-24.083-104.57-24.083-104.57S1891.111,1564.249,1934.811,1590.395z"/>
				<path style="fill:#E6D0BE;" d="M1961.107,1731.848c-0.915,0-1.768-0.573-2.084-1.484
					c-12.038-34.818-30.049-65.843-53.531-92.213c-16.508-18.536-35.749-34.784-57.188-48.291c-1.029-0.648-1.339-2.009-0.689-3.04
					c0.648-1.031,2.011-1.337,3.04-0.689c21.79,13.726,41.347,30.241,58.131,49.087c23.87,26.807,42.174,58.333,54.406,93.703
					c0.398,1.152-0.213,2.407-1.363,2.806C1961.59,1731.809,1961.346,1731.848,1961.107,1731.848z"/>
				<path style="fill:#363E44;" d="M2123.396,2079.012h-440.964v-674.972l-2.386-0.454l2.386-2.005v-1.654h1.97l52.722-44.262
					l0.805,0.002l336.801,0.777l46.732,43.483h1.933v1.8l2.015,1.873l-2.015,0.431V2079.012z M1686.842,2074.603h432.145v-670.954
					l-45.995-42.798l-334.265-0.771l-51.884,43.558V2074.603z"/>
				<rect x="1722.062" y="1270.208" style="fill:#D87355;" width="340.476" height="90.794"/>
				<path style="fill:#363E44;" d="M2076.094,1361.697h-344.886v-95.203h344.886V1361.697z M1735.617,1357.287h336.067v-86.384
					h-336.067V1357.287z"/>
			</g>
			<g>
				<rect x="1837.226" y="1796.192" style="fill:#EFBC73;" width="132.207" height="323.82"/>
				<rect x="1830.532" y="1894.091" style="fill:#E6D0BE;" width="143.92" height="110.45"/>
				<path style="fill:#84524D;" d="M1976.141,2129.824h-145.587c-1.219,0-2.205-0.986-2.205-2.205v-316.366
					c0-1.219,0.986-2.205,2.205-2.205h145.587c1.219,0,2.205,0.986,2.205,2.205v316.366
					C1978.345,2128.838,1977.359,2129.824,1976.141,2129.824z M1832.759,2125.415h141.177v-311.956h-141.177V2125.415z"/>
				<rect x="1822.164" y="1757.702" style="fill:#9E9569;" width="162.328" height="59.409"/>
				<path style="fill:#776E42;" d="M1827.184,1790.028c-1.212,0-2.198-0.98-2.205-2.192c-0.007-1.219,0.975-2.211,2.192-2.218
					l150.615-0.835c0.004,0,0.009,0,0.013,0c1.212,0,2.198,0.98,2.205,2.192c0.006,1.219-0.975,2.211-2.192,2.218l-150.615,0.835
					C1827.193,1790.028,1827.188,1790.028,1827.184,1790.028z"/>
			</g>
			<g>
				<g>
					<path style="fill:#D3BBA3;" d="M1652.01,1931.451c-23.607,23.899-58.439,27.772-87.421-0.857
						c-21.576-21.312,55.981-115.696,85.49-86.547C1677.843,1871.472,1675.617,1907.551,1652.01,1931.451z"/>
					<path style="fill:#F7F1EB;" d="M1643.595,1923.139c-22.345,22.621-56.355,25.71-78.224,7.904
						c-1.236-1.006,2.552-9.433,2.552-9.433s-7.981,4.321-8.836,3.333c-18.692-21.611-16.199-56.127,6.376-78.981
						c22.575-22.854,57.057-25.772,78.896-7.347c0.999,0.843-3.224,8.876-3.224,8.876s8.38-3.891,9.401-2.667
						C1668.61,1866.472,1665.94,1900.517,1643.595,1923.139z"/>
					<path style="fill:#D3BBA3;" d="M1559.101,1924.929c0.855,0.989,1.739,1.961,2.683,2.894c1.155,1.141,2.36,2.2,3.597,3.207
						l85.143-86.197c-1.022-1.224-2.096-2.417-3.251-3.557c-0.944-0.933-1.927-1.804-2.927-2.648L1559.101,1924.929z"/>
				</g>
				<g>
					<path style="fill:#9E9569;" d="M1663.57,1903.762l49.712-60.459c13.948-16.964,39.239-19.431,56.203-5.483
						c16.964,13.948,19.431,39.24,5.483,56.203l-49.711,60.459L1663.57,1903.762z"/>
					<path style="fill:#EFBC73;" d="M1725.256,1954.482l-49.712,60.459c-13.948,16.964-39.24,19.431-56.203,5.483
						c-16.964-13.948-19.431-39.24-5.483-56.203l49.712-60.459L1725.256,1954.482z"/>
					<path style="fill:#8B865C;" d="M1757.755,1831.151c4.158,1.5,8.132,3.711,11.729,6.669
						c16.964,13.948,19.431,39.24,5.483,56.203l-49.711,60.459l-20.539-16.888l49.711-60.459
						C1765.419,1863.769,1766.21,1845.235,1757.755,1831.151z"/>
					<path style="fill:#E0AA63;" d="M1655.005,1998.053l49.712-60.459l20.539,16.888l-49.712,60.459
						c-13.948,16.964-39.239,19.43-56.203,5.482c-3.597-2.958-6.535-6.429-8.81-10.219
						C1625.984,2015.778,1644.015,2011.42,1655.005,1998.053z"/>
				</g>
				<g>
					<path style="fill:#9E9569;" d="M1652.272,2029.714l-65.749,42.469c-18.448,11.916-23.792,36.759-11.876,55.207
						s36.759,23.792,55.207,11.876l65.749-42.469L1652.272,2029.714z"/>
					<path style="fill:#EFBC73;" d="M1695.603,2096.797l65.749-42.469c18.448-11.916,23.792-36.759,11.876-55.207
						c-11.916-18.448-36.759-23.792-55.207-11.876l-65.749,42.469L1695.603,2096.797z"/>
					<path style="fill:#8B865C;" d="M1569.364,2114.975c1.014,4.303,2.757,8.503,5.283,12.415
						c11.916,18.448,36.759,23.792,55.207,11.876l65.749-42.469l-14.427-22.336l-65.749,42.469
						C1600.891,2126.319,1582.388,2124.985,1569.364,2114.975z"/>
					<path style="fill:#E0AA63;" d="M1746.925,2031.992l-65.749,42.469l14.427,22.336l65.749-42.469
						c18.448-11.916,23.791-36.759,11.875-55.207c-2.527-3.912-5.639-7.227-9.144-9.921
						C1767.853,2005.188,1761.46,2022.603,1746.925,2031.992z"/>
				</g>
				<g>
					<path style="fill:#9E9569;" d="M1526.616,1931.15l-78.181,3.767c-21.936,1.057-39.019,19.87-37.962,41.806
						c1.057,21.936,19.87,39.019,41.806,37.962l78.181-3.767L1526.616,1931.15z"/>
					<path style="fill:#EFBC73;" d="M1530.46,2010.918l78.182-3.767c21.936-1.057,39.019-19.87,37.962-41.806
						c-1.057-21.936-19.87-39.019-41.806-37.962l-78.181,3.767L1530.46,2010.918z"/>
					<path style="fill:#8B865C;" d="M1412.128,1963.333c-1.281,4.231-1.88,8.739-1.656,13.39
						c1.057,21.936,19.87,39.019,41.806,37.962l78.181-3.767l-1.28-26.56l-78.181,3.767
						C1433.714,1988.959,1418.376,1978.525,1412.128,1963.333z"/>
					<path style="fill:#E0AA63;" d="M1607.362,1980.591l-78.182,3.767l1.28,26.56l78.182-3.767
						c21.936-1.057,39.019-19.87,37.962-41.806c-0.224-4.651-1.254-9.081-2.935-13.169
						C1638.91,1967.898,1624.647,1979.758,1607.362,1980.591z"/>
				</g>
				<g>
					<path style="fill:#D3BBA3;" d="M1557.451,2113.058c-34.248,9.363-68.16-5.536-79.515-47.068
						c-8.453-30.918,112.463-76.194,124.024-33.906C1612.838,2071.869,1591.699,2103.695,1557.451,2113.058z"/>
					<path style="fill:#F7F1EB;" d="M1554.155,2100.999c-32.417,8.862-65.163-6.319-75.74-34.186
						c-0.598-1.575,7.328-7.278,7.328-7.278s-9.588-0.273-9.847-1.629c-5.656-29.666,14.898-59.918,47.649-68.872
						c32.751-8.954,65.837,6.634,76.06,35.051c0.468,1.299-7.648,6.412-7.648,6.412s9.725,0.877,10.012,2.537
						C1607.039,2062.408,1586.571,2092.137,1554.155,2100.999z"/>
					<path style="fill:#D3BBA3;" d="M1475.915,2057.902c0.259,1.358,0.552,2.715,0.922,4.068c0.452,1.655,0.994,3.262,1.593,4.838
						l123.521-33.769c-0.287-1.661-0.638-3.321-1.09-4.975c-0.37-1.353-0.807-2.671-1.276-3.971L1475.915,2057.902z"/>
				</g>
			</g>
			<g>
				<path style="fill:#B77250;" d="M1960.456,1930.325l-15.65,15.964c0,0-0.732,172.677-0.732,173.029
					c0,12.188,31.429,22.362,70.191,21.851c73.854-0.972,71.649-22.469,71.649-22.469v-172.411l-16.874-15.964
					C2054.302,1944.262,1971.626,1942.323,1960.456,1930.325z"/>
				<ellipse style="fill:#84524D;" cx="2014.08" cy="1932.374" rx="55.748" ry="7.788"/>
				<path style="fill:#363E44;" d="M2014.665,2148.38c-39.099,0-78.678-8.24-78.678-23.986v-181.542l30.868-26.639v-37.839h97.012
					v37.889l28.663,26.639v180.208c-0.011,0.226-0.026,0.411-0.026,0.648C2092.503,2139.75,2052.398,2148.38,2014.665,2148.38z
					 M1940.396,1944.871v179.523c0,9.454,29.843,19.576,74.268,19.576c43.924,0,73.429-10.451,73.429-20.214
					c0-0.48,0.034-0.848,0.034-0.848l-0.009-178.086l-28.663-26.639v-35.4h-88.193v35.449L1940.396,1944.871z"/>
				<g>
					<polygon style="fill:#FFFFFF;" points="2074.544,2045.667 2074.544,1952.965 2062.321,1956.706 2062.321,2050.472 					"/>
					<polygon style="fill:#FFFFFF;" points="2062.321,2061.678 2062.321,2121.88 2074.544,2118.138 2074.544,2057.113 					"/>
				</g>
				<path style="fill:#B77250;" d="M2025.969,2044.026h-29.513c-1.219,0-2.205-0.986-2.205-2.205v-189.38
					c0-1.219,0.986-2.205,2.205-2.205h29.513c1.219,0,2.205,0.986,2.205,2.205v189.38
					C2028.173,2043.04,2027.187,2044.026,2025.969,2044.026z M1998.66,2039.616h25.104v-184.97h-25.104V2039.616z"/>
				<g>
					<path style="fill:#363E44;" d="M2070.48,1827.493l-118.929,3.191l1.399,52.152l0.05-0.001
						c-0.017,0.174-0.041,0.347-0.036,0.522c0.234,8.724,27.047,15.082,59.889,14.201c32.842-0.881,59.275-8.668,59.041-17.392
						c-0.005-0.174-0.038-0.346-0.063-0.519l0.049-0.001L2070.48,1827.493z"/>
					
						<ellipse transform="matrix(0.9996 -0.0268 0.0268 0.9996 -48.3333 54.594)" style="fill:#2D353A;" cx="2011.016" cy="1829.089" rx="59.486" ry="15.802"/>
					<path style="fill:#363E44;" d="M2035.677,1830.844l-49.193,1.32l-2.529-94.253c-0.365-13.584,10.352-24.892,23.936-25.256
						c13.584-0.364,24.892,10.352,25.256,23.936L2035.677,1830.844z"/>
				</g>
			</g>
		</g>
	</g>
</g>
</svg>
