<svg xmlns="http://www.w3.org/2000/svg" viewBox="0 0 575 525" id="home-remedies">
  <ellipse cx="431.172" cy="173.81" fill="#63ea86" rx="96.081" ry="59.145" transform="rotate(-45 431.172 173.81)"></ellipse>
  <path fill="#ffcd85" d="m328.646 243.086-100.56 130.56c-36.454-44.197-79.279-120.536-129.402-166.682q-28.565-26.3-56.567-49.287l85.56-85.56q23.124 28.465 49.859 57.757c46.009 50.181 107.268 77.567 151.11 113.212Z"></path>
  <ellipse cx="296.172" cy="173.81" fill="#90f0a9" rx="59.145" ry="96.081" transform="rotate(-45 296.172 173.81)"></ellipse>
  <rect width="138" height="36" x="-11.831" y="84.169" fill="#ffb74e" rx="18" transform="rotate(-45 72.17 102.169)"></rect>
  <path fill="#595f74" d="M170.5 450.5h171v24a30 30 0 0 1-30 30h-111a30 30 0 0 1-30-30v-24Z"></path>
  <path fill="#4a4f60" d="M321.5 450.5v24a30 30 0 0 1-30 30h20a30 30 0 0 0 30-30v-24Z"></path>
  <path fill="#676e87" d="M30 266.5h452v24a175 175 0 0 1-175 175H205a175 175 0 0 1-175-175v-24Z"></path>
  <path fill="#595f74" d="M462 266.5v24a175 175 0 0 1-175 175h20a175 175 0 0 0 175-175v-24Z"></path>
  <path fill="#3ce568" d="M249.552 210.5a108.952 108.952 0 0 0 4.798 5.132 107.575 107.575 0 0 0 109.762 26.118 107.865 107.865 0 0 0 5.347-31.25Z"></path>
  <path fill="#28e258" d="M357.885 210.5a107.865 107.865 0 0 0 5.347 31.25 107.576 107.576 0 0 0 109.762-26.118 109.078 109.078 0 0 0 4.797-5.132Z"></path>
  <path fill="#ffc166" d="M143.04 256.5h175.274l10.332-13.414c-13.98-11.366-29.733-21.893-46.196-32.586H102.433c14.113 13.507 27.643 29.308 40.608 46Z"></path>
  <path fill="#3ce568" d="M143.04 256.5h175.274l10.332-13.414c-13.98-11.366-29.733-21.893-46.196-32.586h-41.6c14.113 13.507-110.774 29.308-97.81 46Z"></path>
  <rect width="497" height="46" x="7.5" y="220.5" fill="#595f74" rx="23"></rect>
  <path fill="#4a4f60" d="M481.5 220.5h-30a23 23 0 0 1 23 23 23 23 0 0 1-23 23h30a23 23 0 0 0 23-23 23 23 0 0 0-23-23Z"></path>
  <path fill="#313440" d="M485.31 213.247a114.53 114.53 0 0 0 20.927-109.719 7.5 7.5 0 0 0-4.782-4.782 115.242 115.242 0 0 0-137.782 55.48 115.253 115.253 0 0 0-137.783-55.48 7.5 7.5 0 0 0-4.783 4.782 115.337 115.337 0 0 0-4.704 52.205 296.068 296.068 0 0 1-33.339-30.927 1274.677 1274.677 0 0 1-45.303-52.212 25.5 25.5 0 0 0-36.954-35.125L7.47 130.807a25.5 25.5 0 0 0 35.09 36.984 1369.322 1369.322 0 0 1 51.044 44.69c.184.17.37.349.554.519H30.5a30.498 30.498 0 0 0-8 59.928V290.5c0 86.18 60.048 158.593 140.5 177.614v6.386a37.542 37.542 0 0 0 37.5 37.5h111a37.542 37.542 0 0 0 37.5-37.5v-6.386c80.452-19.021 140.5-91.433 140.5-177.614v-17.572a30.493 30.493 0 0 0-4.19-59.681Zm-90.657-75.955a99.632 99.632 0 0 1 98.461-25.423 99.632 99.632 0 0 1-25.423 98.46c-.913.912-1.847 1.8-2.788 2.671h-60.04l47.635-44.66a7.5 7.5 0 1 0-10.26-10.943L382.932 213h-6.044a114.912 114.912 0 0 0-5.27-39.893 99.089 99.089 0 0 1 23.035-35.815ZM234.23 111.869a100.229 100.229 0 0 1 122.184 63.079 7.5 7.5 0 0 0 .305.91A99.918 99.918 0 0 1 361.877 213h-17.464l-59.307-55.603a7.5 7.5 0 1 0-10.26 10.942L322.483 213h-60.04a101.868 101.868 0 0 1-2.789-2.67 100.173 100.173 0 0 1-23.71-37.554 7.495 7.495 0 0 0-.523-1.503 99.78 99.78 0 0 1-1.19-59.404ZM32.924 156.263a10.5 10.5 0 1 1-14.848-14.85l93.338-93.338a10.5 10.5 0 0 1 14.849 14.85l-3.886 3.885-.004.004-42.78 42.78Zm20.317.896 73.878-73.877a1290.368 1290.368 0 0 0 44.889 51.66c13.92 15.183 29.947 29.27 50.274 44.192A114.821 114.821 0 0 0 241.826 213H115.591c-3.98-4.098-7.952-7.986-11.826-11.554A1385.634 1385.634 0 0 0 53.24 157.16ZM334 474.5a22.526 22.526 0 0 1-22.5 22.5h-111a22.526 22.526 0 0 1-22.5-22.5V471a183.18 183.18 0 0 0 27 2h102a183.18 183.18 0 0 0 27-2Zm140.5-184c0 92.36-75.14 167.5-167.5 167.5H205c-92.36 0-167.5-75.14-167.5-167.5V274h437Zm7-31.5h-451a15.5 15.5 0 0 1 0-31h451a15.5 15.5 0 0 1 0 31ZM307 433a142.5 142.5 0 0 0 141.506-125.617 7.5 7.5 0 0 0-14.897-1.766A127.493 127.493 0 0 1 307 418a7.5 7.5 0 0 0 0 15Z"></path>
</svg>
